<svg width="19" height="17" viewBox="0 0 19 17" fill="none" xmlns="http://www.w3.org/2000/svg">
<path d="M15.0001 0H14.0001H4.57007C3.50007 0 2.59007 0.67 2.38007 1.61L1.04007 7.61C0.770068 8.85 1.82007 10 3.23007 10H7.46007L5.94007 14.94C5.62007 15.97 6.46007 17 7.62007 17C8.20007 17 8.76007 16.76 9.14007 16.35L15.0001 10H19.0001V0H15.0001ZM8.40007 15.67C8.21007 15.88 7.92007 16 7.62007 16C7.36007 16 7.12007 15.89 6.99007 15.7C6.92007 15.6 6.84007 15.44 6.90007 15.23L8.42007 10.29L8.82007 9H7.46007H3.23007C2.82007 9 2.43007 8.83 2.20007 8.54C2.08007 8.39 1.95007 8.14 2.02007 7.82L3.36007 1.82C3.46007 1.35 3.97007 1 4.57007 1H14.0001V9.61L8.40007 15.67ZM18.0001 9H15.0001V1H18.0001V9Z" fill="white"/>
</svg>
